<mxfile host="app.diagrams.net" agent="Mozilla/5.0 (Macintosh; Intel Mac OS X 10_15_7) AppleWebKit/537.36 (KHTML, like Gecko) Chrome/133.0.0.0 Safari/537.36" version="26.1.0">
  <diagram name="Page-1" id="74b105a0-9070-1c63-61bc-23e55f88626e">
    <mxGraphModel dx="3827.5" dy="1121" grid="1" gridSize="10" guides="1" tooltips="1" connect="1" arrows="1" fold="1" page="1" pageScale="1.5" pageWidth="1169" pageHeight="826" background="none" math="0" shadow="0">
      <root>
        <mxCell id="0" style=";html=1;" />
        <mxCell id="1" style=";html=1;" parent="0" />
        <mxCell id="CUUbgYaL5cTZ6HXjsOBF-50" value="" style="rounded=0;whiteSpace=wrap;html=1;" vertex="1" parent="1">
          <mxGeometry x="160" y="260" width="425" height="330" as="geometry" />
        </mxCell>
        <mxCell id="CUUbgYaL5cTZ6HXjsOBF-51" value="RTable" style="text;html=1;align=center;verticalAlign=middle;whiteSpace=wrap;rounded=0;" vertex="1" parent="1">
          <mxGeometry x="342.5" y="260" width="60" height="30" as="geometry" />
        </mxCell>
        <mxCell id="CUUbgYaL5cTZ6HXjsOBF-52" value="TableSchema" style="rounded=0;whiteSpace=wrap;html=1;" vertex="1" parent="1">
          <mxGeometry x="190" y="300" width="365" height="50" as="geometry" />
        </mxCell>
        <mxCell id="CUUbgYaL5cTZ6HXjsOBF-53" value="" style="rounded=0;whiteSpace=wrap;html=1;" vertex="1" parent="1">
          <mxGeometry x="300" y="370" width="255" height="187.5" as="geometry" />
        </mxCell>
        <mxCell id="CUUbgYaL5cTZ6HXjsOBF-54" value="" style="rounded=0;whiteSpace=wrap;html=1;" vertex="1" parent="1">
          <mxGeometry x="190" y="370" width="90" height="187.5" as="geometry" />
        </mxCell>
        <mxCell id="CUUbgYaL5cTZ6HXjsOBF-55" value="" style="rounded=0;whiteSpace=wrap;html=1;" vertex="1" parent="1">
          <mxGeometry x="205" y="395" width="60" height="50" as="geometry" />
        </mxCell>
        <mxCell id="CUUbgYaL5cTZ6HXjsOBF-56" value="" style="rounded=0;whiteSpace=wrap;html=1;dashed=1;dashPattern=8 8;" vertex="1" parent="1">
          <mxGeometry x="205" y="470" width="60" height="70" as="geometry" />
        </mxCell>
        <mxCell id="CUUbgYaL5cTZ6HXjsOBF-66" style="edgeStyle=orthogonalEdgeStyle;rounded=0;orthogonalLoop=1;jettySize=auto;html=1;entryX=0;entryY=0.5;entryDx=0;entryDy=0;" edge="1" parent="1" source="CUUbgYaL5cTZ6HXjsOBF-58" target="CUUbgYaL5cTZ6HXjsOBF-50">
          <mxGeometry relative="1" as="geometry" />
        </mxCell>
        <mxCell id="CUUbgYaL5cTZ6HXjsOBF-58" value="" style="rounded=0;whiteSpace=wrap;html=1;" vertex="1" parent="1">
          <mxGeometry x="-450" y="260" width="425" height="330" as="geometry" />
        </mxCell>
        <mxCell id="CUUbgYaL5cTZ6HXjsOBF-59" value="RTable" style="text;html=1;align=center;verticalAlign=middle;whiteSpace=wrap;rounded=0;" vertex="1" parent="1">
          <mxGeometry x="-267.5" y="270" width="60" height="30" as="geometry" />
        </mxCell>
        <mxCell id="CUUbgYaL5cTZ6HXjsOBF-60" value="TableSchema" style="rounded=0;whiteSpace=wrap;html=1;" vertex="1" parent="1">
          <mxGeometry x="-420" y="300" width="365" height="50" as="geometry" />
        </mxCell>
        <mxCell id="CUUbgYaL5cTZ6HXjsOBF-61" value="" style="rounded=0;whiteSpace=wrap;html=1;" vertex="1" parent="1">
          <mxGeometry x="-310" y="370" width="255" height="187.5" as="geometry" />
        </mxCell>
        <mxCell id="CUUbgYaL5cTZ6HXjsOBF-62" value="" style="rounded=0;whiteSpace=wrap;html=1;" vertex="1" parent="1">
          <mxGeometry x="-420" y="370" width="90" height="187.5" as="geometry" />
        </mxCell>
        <mxCell id="CUUbgYaL5cTZ6HXjsOBF-63" value="" style="rounded=0;whiteSpace=wrap;html=1;" vertex="1" parent="1">
          <mxGeometry x="-405" y="395" width="60" height="50" as="geometry" />
        </mxCell>
        <mxCell id="CUUbgYaL5cTZ6HXjsOBF-64" value="" style="rounded=0;whiteSpace=wrap;html=1;dashed=1;dashPattern=8 8;" vertex="1" parent="1">
          <mxGeometry x="-405" y="470" width="60" height="70" as="geometry" />
        </mxCell>
      </root>
    </mxGraphModel>
  </diagram>
</mxfile>
